<svg xmlns="http://www.w3.org/2000/svg" viewBox="680 10 80 73">
  <g fill="none" fill-rule="evenodd">
    <path d="M716.4 82.7c20 0 36.4-16.2 36.4-36.3 0-20-16.3-36.4-36.4-36.4-20 0-36.4 16.3-36.4 36.4 0 20 16.3 36.3 36.4 36.3zm-11.7-27.4v7h7v-7h-7zm-16.4 0v7h6.8v-7h-6.7zm16.4-8.2v7h7v-7h-7zm-8.2 0v7h7v-7h-7zm-8.2 0v7h6.8v-7h-6.7zm16.4-8.2v7h7v-7h-7zm-16.4 0v7h6.8v-7h-6.7zm16.4-8.2v7h7v-7h-7zm-8.2 0v7h7v-7h-7zm-8.2 0v7h6.8v-7h-6.7zm33 24.7v7h6.8v-7h-6.8zm16.4-8.2v7h6.8v-7h-6.8zm-8.3 0v7h7v-7h-7zm-8.2 0v7h7v-7h-7zm16.5-8.2v7h6.8v-7h-6.8zm-16.5 0v7h7v-7h-7zm16.5-8.2v7h6.8v-7h-6.8zm-8.3 0v7h7v-7h-7zm-8.2 0v7h7v-7h-7z"/>
  </g>
</svg>
